<?xml version="1.0" standalone="no"?><!DOCTYPE svg PUBLIC "-//W3C//DTD SVG 1.1//EN" "http://www.w3.org/Graphics/SVG/1.1/DTD/svg11.dtd"><svg t="1692863654915" class="icon" viewBox="0 0 1024 1024" version="1.1" xmlns="http://www.w3.org/2000/svg" p-id="1472" xmlns:xlink="http://www.w3.org/1999/xlink" width="200" height="200"><path d="M512.469333 85.930667c-37.333333 0-74.197333 14.208-102.698666 42.666666l-311.978667 310.656a43.861333 43.861333 0 0 0 0 61.354667l73.386667 73.386667v151.936a170.666667 170.666667 0 0 0 170.666666 170.666666h341.333334a170.666667 170.666667 0 0 0 170.666666-170.666666v-151.978667l73.258667-73.344a43.861333 43.861333 0 0 0 0-61.354667c-14.464-14.464-67.413333-67.712-115.968-116.010666V213.930667a42.666667 42.666667 0 0 0-85.333333 0v25.344c-45.653333-45.44-96.853333-96.853333-110.677334-110.677334a144.426667 144.426667 0 0 0-102.656-42.666666z m0 85.333333c15.488 0 30.848 5.546667 42.666667 17.322667 22.784 22.826667 108.8 108.373333 182.656 182.698666 0.298667 0.298667-0.298667 1.024 0 1.322667 0.256 0.256 1.066667-0.298667 1.322667 0 39.04 39.253333 73.216 74.538667 96 97.322667l-54.613334 54.656a43.52 43.52 0 0 0-12.032 30.72v170.666666a85.333333 85.333333 0 0 1-85.333333 85.333334h-341.333333a85.333333 85.333333 0 0 1-85.333334-85.333334v-170.666666c0-11.349333-4.010667-22.698667-12.032-30.72l-54.613333-54.613334L469.76 188.586667a59.605333 59.605333 0 0 1 42.666667-17.322667z" fill="#1c7806" p-id="1473"></path></svg>